<?xml version="1.0" encoding="UTF-8"?>
<svg width="188px" height="201px" viewBox="0 0 188 201" version="1.1" xmlns="http://www.w3.org/2000/svg" xmlns:xlink="http://www.w3.org/1999/xlink">
    <title>编组 7</title>
    <g id="Vega" stroke="none" stroke-width="1" fill="none" fill-rule="evenodd">
        <g id="画板" transform="translate(-86.000000, -151.000000)">
            <g id="编组-7" transform="translate(86.000000, 151.666667)">
                <g id="编组-4" transform="translate(0.000000, 0.333333)">
                    <g id="编组-2" transform="translate(5.514592, 0.000000)" fill-rule="nonzero">
                        <g id="编组-6" transform="translate(98.935611, 107.917824)">
                            <polygon id="路径" fill="#005FFF" points="68.9332569 90.6228047 32.7834929 45.3114024 68.9332569 -9.28151003e-13 48.3067033 -9.28151003e-13 48.3067033 0.0631958192 13.3905226 45.3114024 48.3067033 90.6228047"></polygon>
                            <polygon id="路径备份" fill="#00BCFF" points="81.6618001 90.6228047 45.5120362 45.3114024 81.6618001 -9.28151003e-13 61.0352465 -9.28151003e-13 61.0352465 0.0631958192 26.1190659 45.3114024 61.0352465 90.6228047"></polygon>
                            <polygon id="路径备份-4" fill="#006EFF" points="17.3571044 90.6860005 17.3571044 0 0 0 0 90.6860005"></polygon>
                            <polygon id="路径备份-5" fill="#00BCFF" points="26.9035119 90.6860005 26.9035119 0 9.54640745 0 9.54640745 90.6860005"></polygon>
                        </g>
                        <polygon id="路径" fill="#FFE64A" points="18.0322181 89.4485428 18.0322181 52.4935987 55.7357061 52.4935987 55.7357061 89.4485428 73.478524 89.4485428 73.478524 0.083635778 55.7357061 0.083635778 55.7357061 37.0385799 18.0322181 37.0385799 18.0322181 0.083635778 0.289400249 0.083635778 0.289400249 89.4485428"></polygon>
                        <polygon id="路径" fill="#10D26A" points="181.671142 89.3864407 155.756411 72.1938711 121.210561 72.1938711 136.717465 40.8349333 160.232288 89.3864407 181.671142 89.4485428 136.717465 0.083635778 92.5713389 89.4485428"></polygon>
                    </g>
                    <path d="M81.3299857,145.488044 L81.3307044,186.621647 C72.6886772,194.291501 60.9905711,199 48.1119215,199 C41.0067233,199 34.2608554,197.566841 28.1892686,194.993915 L81.3299857,145.488044 Z M81.3299857,123.828044 L81.3299857,136.736044 L22.1080218,191.9056 C19.3301356,190.2427 16.7476397,188.321161 14.3997268,186.177491 L81.3299857,123.828044 Z M77.5390751,118.608045 L9.97748269,181.543659 C7.93015276,179.075739 6.15275441,176.403609 4.68649975,173.565662 L68.9734073,113.678461 C72.0204323,115.044517 74.889399,116.700515 77.5390751,118.608045 Z M62.2195476,111.218375 L2.0452256,167.273321 C0.894458428,163.768529 0.191956741,160.081354 -1.43206446e-05,156.2698 L50.4057317,109.313044 C54.4979826,109.491775 58.456685,110.146228 62.2195476,111.218375 Z M40.4598376,109.826165 L0.550577134,147.004214 C3.81830133,127.932757 19.98704,112.870591 40.4598376,109.826165 Z" id="形状结合" fill="#FF4400"></path>
                </g>
            </g>
        </g>
    </g>
</svg>